HIERARCHY
ROOT Hips
{
	OFFSET 0.000000 0.000000 0.000000 
	CHANNELS 6 Xposition Yposition Zposition Zrotation Yrotation Xrotation
	JOINT LHipJoint
	{
		OFFSET 0.000000 0.000000 0.000000 
		CHANNELS 3 Zrotation Yrotation Xrotation
		JOINT LeftUpLeg
		{
			OFFSET 1.091560 -1.614060 0.765000 
			CHANNELS 3 Zrotation Yrotation Xrotation
			JOINT LeftLeg
			{
				OFFSET 2.337500 -6.422250 0.000000 
				CHANNELS 3 Zrotation Yrotation Xrotation
				JOINT LeftFoot
				{
					OFFSET 2.492470 -6.848000 0.000000 
					CHANNELS 3 Zrotation Yrotation Xrotation
					JOINT LeftToeBase
					{
						OFFSET 0.153120 -0.420690 1.454610 
						CHANNELS 3 Zrotation Yrotation Xrotation
						End Site
						{
							OFFSET 0.000000 -0.000000 0.770460 
						}
					}
				}
			}
		}
	}
	JOINT RHipJoint
	{
		OFFSET 0.000000 0.000000 0.000000 
		CHANNELS 3 Zrotation Yrotation Xrotation
		JOINT RightUpLeg
		{
			OFFSET -0.998830 -1.614060 0.765000 
			CHANNELS 3 Zrotation Yrotation Xrotation
			JOINT RightLeg
			{
				OFFSET -2.368770 -6.508150 0.000000 
				CHANNELS 3 Zrotation Yrotation Xrotation
				JOINT RightFoot
				{
					OFFSET -2.534520 -6.963530 0.000000 
					CHANNELS 3 Zrotation Yrotation Xrotation
					JOINT RightToeBase
					{
						OFFSET -0.131560 -0.361450 1.632370 
						CHANNELS 3 Zrotation Yrotation Xrotation
						End Site
						{
							OFFSET -0.000000 -0.000000 0.849790 
						}
					}
				}
			}
		}
	}
	JOINT LowerBack
	{
		OFFSET 0.000000 0.000000 0.000000 
		CHANNELS 3 Zrotation Yrotation Xrotation
		JOINT Spine
		{
			OFFSET -0.024310 1.982420 -0.136160 
			CHANNELS 3 Zrotation Yrotation Xrotation
			JOINT Spine1
			{
				OFFSET 0.036290 1.989740 -0.029540 
				CHANNELS 3 Zrotation Yrotation Xrotation
				JOINT Neck
				{
					OFFSET 0.000000 0.000000 0.000000 
					CHANNELS 3 Zrotation Yrotation Xrotation
					JOINT Neck1
					{
						OFFSET 0.093490 1.407830 0.223330 
						CHANNELS 3 Zrotation Yrotation Xrotation
						JOINT Head
						{
							OFFSET -0.042730 1.445000 -0.064950 
							CHANNELS 3 Zrotation Yrotation Xrotation
							End Site
							{
								OFFSET -0.022510 1.446000 -0.045440 
							}
						}
					}
				}
				JOINT LeftShoulder
				{
					OFFSET 0.000000 0.000000 0.000000 
					CHANNELS 3 Zrotation Yrotation Xrotation
					JOINT LeftArm
					{
						OFFSET 3.491370 0.851260 -0.297400 
						CHANNELS 3 Zrotation Yrotation Xrotation
						JOINT LeftForeArm
						{
							OFFSET 5.060350 -0.000000 0.000000 
							CHANNELS 3 Zrotation Yrotation Xrotation
							JOINT LeftHand
							{
								OFFSET 3.147800 -0.000000 0.000000 
								CHANNELS 3 Zrotation Yrotation Xrotation
								JOINT LeftFingerBase
								{
									OFFSET 0.000000 0.000000 0.000000 
									CHANNELS 3 Zrotation Yrotation Xrotation
									JOINT LeftHandIndex1
									{
										OFFSET 0.606750 -0.000000 0.000000 
										CHANNELS 3 Zrotation Yrotation Xrotation
										End Site
										{
											OFFSET 0.489180 -0.000000 0.000000 
										}
									}
								}
								JOINT LThumb
								{
									OFFSET 0.000000 0.000000 0.000000 
									CHANNELS 3 Zrotation Yrotation Xrotation
									End Site
									{
										OFFSET 0.496640 -0.000000 0.496640 
									}
								}
							}
						}
					}
				}
				JOINT RightShoulder
				{
					OFFSET 0.000000 0.000000 0.000000 
					CHANNELS 3 Zrotation Yrotation Xrotation
					JOINT RightArm
					{
						OFFSET -3.281010 0.697070 0.007470 
						CHANNELS 3 Zrotation Yrotation Xrotation
						JOINT RightForeArm
						{
							OFFSET -5.122730 -0.000000 -0.000000 
							CHANNELS 3 Zrotation Yrotation Xrotation
							JOINT RightHand
							{
								OFFSET -3.422000 -0.000000 0.000000 
								CHANNELS 3 Zrotation Yrotation Xrotation
								JOINT RightFingerBase
								{
									OFFSET 0.000000 0.000000 0.000000 
									CHANNELS 3 Zrotation Yrotation Xrotation
									JOINT RightHandIndex1
									{
										OFFSET -0.704600 -0.000000 0.000000 
										CHANNELS 3 Zrotation Yrotation Xrotation
										End Site
										{
											OFFSET -0.568070 -0.000000 0.000000 
										}
									}
								}
								JOINT RThumb
								{
									OFFSET 0.000000 0.000000 0.000000 
									CHANNELS 3 Zrotation Yrotation Xrotation
									End Site
									{
										OFFSET -0.576740 -0.000000 0.576740 
									}
								}
							}
						}
					}
				}
			}
		}
	}
}
MOTION
Frames: 7
Frame Time: 0.008333
0.000000 15.999995 0.000000 531.760986 97.038803 537.882019 0.000000 0.000000 0.000000 -22.954000 2.264700 -10.221500 2.457700 9.760700 28.205099 1.976600 7.000200 -29.823200 0.000700 -0.164800 -0.452900 0.000000 0.000000 0.000000 9.688000 8.620200 -7.194700 -1.653600 -8.103700 23.029600 -0.407600 -7.727600 -17.289000 -0.618800 5.034100 -14.005800 -3.206200 -1.681400 -5.367100 1.359100 -2.072900 -1.112500 3.052600 -1.048900 2.026300 -4.104400 -3.816200 -2.465700 -1.474000 -4.861900 2.993300 0.129600 -2.489900 1.402000 0.000000 -0.000000 0.000000 -93.564400 -3.592300 11.377800 6.047800 -10.341800 -0.547800 -0.000000 -0.000000 16.020500 15.103100 44.224201 10.660200 -7.125000 0.000000 -0.000000 -37.420200 72.176498 -25.157600 0.000000 -0.000000 0.000000 88.878700 1.413900 -9.642000 -4.897400 8.411200 -0.360300 0.000000 0.000000 33.043598 -28.064800 32.176498 -15.850500 7.125000 -0.000000 -0.000000 2.125400 5.487300 2.320400 
0.000000 15.999995 0.000000 531.124023 97.023201 537.343018 0.000000 0.000000 0.000000 -23.010700 1.902200 -10.208000 2.473100 9.788800 28.295300 1.953300 7.297000 -29.849001 0.000300 -0.119800 -0.329100 0.000000 0.000000 0.000000 9.621800 8.521100 -7.529800 -1.703100 -8.218100 23.378500 -0.383900 -7.723200 -16.997200 -0.765700 5.587800 -15.593000 -2.969400 -1.830400 -5.343600 1.374200 -2.285100 -1.172300 2.920600 -1.151100 1.959500 -4.159400 -3.769700 -2.264200 -1.492800 -4.813100 2.754200 0.140700 -2.461100 1.291200 0.000000 0.000000 0.000000 -93.621902 -3.887800 9.202700 5.691000 -9.745800 -0.485600 -0.000000 -0.000000 18.021799 15.053900 44.102798 10.602000 -7.125000 0.000000 -0.000000 -37.202999 72.070503 -24.918501 0.000000 0.000000 0.000000 88.795403 1.403300 -9.200900 -4.794700 8.237800 -0.345500 0.000000 0.000000 32.314400 -29.580400 32.343899 -16.892500 7.125000 -0.000000 -0.000000 1.315900 6.072100 1.448100 
0.000000 15.999995 0.000000 529.486023 96.959602 535.627991 0.000000 0.000000 0.000000 -22.948400 1.489100 -9.918300 2.493300 9.825700 28.414301 1.943600 7.636500 -29.991600 0.004100 0.411300 1.130200 0.000000 0.000000 0.000000 9.738700 8.576400 -7.577100 -1.750000 -8.324800 23.705000 -0.376700 -7.707200 -16.893700 -0.884300 5.994600 -16.768600 -2.715400 -1.931900 -5.314800 1.442300 -2.436300 -1.160700 2.837600 -1.225500 1.959000 -4.106400 -3.785000 -2.004800 -1.560700 -4.851800 2.546800 0.118000 -2.475700 1.177800 -0.000000 -0.000000 0.000000 -93.712601 -4.007900 7.598300 5.466300 -9.369100 -0.448300 -0.000000 -0.000000 19.602699 14.904900 43.990101 10.473700 -7.125000 0.000000 -0.000000 -37.113998 71.935501 -24.750200 -0.000000 -0.000000 0.000000 88.657402 1.160700 -8.962200 -4.769900 8.195800 -0.341900 0.000000 0.000000 31.879101 -29.027500 32.302601 -16.517900 7.125000 -0.000000 -0.000000 1.614400 5.876800 1.771900 
0.000000 15.999995 0.000000 528.559021 97.256401 534.651978 0.000000 0.000000 0.000000 -22.753300 2.112100 -10.026100 2.497400 9.833100 28.438101 1.992000 7.273100 -30.080799 0.005800 0.489800 1.345900 0.000000 0.000000 0.000000 9.885600 9.031300 -7.558800 -1.813400 -8.466100 24.139099 -0.438700 -7.086700 -17.077101 -0.790700 5.676200 -15.847900 -2.606400 -1.774500 -5.290900 1.292400 -2.230700 -1.134600 2.637200 -1.122400 1.947900 -3.669000 -3.932100 -1.603100 -1.459000 -5.095500 2.192500 0.086200 -2.585600 0.991100 -0.000000 0.000000 0.000000 -93.376404 -4.034300 7.153500 5.361400 -9.192900 -0.431300 -0.000000 -0.000000 20.502001 15.365800 44.089199 10.824400 -7.125000 0.000000 -0.000000 -36.838600 72.170097 -24.731701 -0.000000 0.000000 0.000000 89.060204 0.883900 -9.153400 -4.823100 8.285800 -0.349600 0.000000 0.000000 31.548300 -28.889099 31.841499 -16.230400 7.125000 -0.000000 -0.000000 1.601000 5.355800 1.744100 
0.000000 15.999995 0.000000 526.664978 97.577499 532.822021 0.000000 0.000000 0.000000 -22.614700 1.790800 -9.854000 2.484100 9.808900 28.360201 1.963800 7.767700 -30.198799 0.014500 0.777600 2.137200 0.000000 0.000000 0.000000 10.053500 9.116900 -8.036000 -1.900300 -8.655200 24.722700 -0.367500 -7.327300 -16.417801 -1.129900 6.751200 -18.980400 -1.977900 -1.561900 -5.360000 1.080600 -1.975500 -1.163300 2.083100 -0.990100 1.911600 -3.082900 -4.029300 -1.328500 -1.515900 -5.258600 1.942500 -0.019000 -2.659100 0.849700 0.000000 -0.000000 0.000000 -92.953903 -3.893800 7.937300 5.345700 -9.166600 -0.428800 -0.000000 -0.000000 20.268101 15.620900 43.883598 10.968900 -7.125000 0.000000 -0.000000 -36.110199 72.107399 -24.159300 0.000000 -0.000000 0.000000 89.532997 0.662400 -9.433300 -4.820100 8.280600 -0.349100 0.000000 0.000000 30.987200 -29.440599 31.464199 -16.415001 7.125000 -0.000000 -0.000000 1.218900 5.108100 1.322800 
0.000000 15.999995 0.000000 530.307007 97.735001 536.568970 0.000000 0.000000 0.000000 -23.271099 1.440600 -9.701600 2.457900 9.760900 28.205799 1.926000 8.277000 -30.275600 0.040400 1.297200 3.567000 0.000000 0.000000 0.000000 9.378900 9.320000 -8.540100 -1.999900 -8.865800 25.376301 -0.399800 -6.987400 -16.510700 -1.075100 6.591100 -18.509399 -2.561500 -1.709200 -5.437100 1.075800 -2.136900 -1.240300 2.393100 -1.072200 1.904600 -3.190900 -3.899800 -1.245300 -1.522500 -5.088600 1.837400 0.001700 -2.572800 0.804600 0.000000 0.000000 0.000000 -93.089302 -3.698900 8.234300 5.400200 -9.258100 -0.437600 -0.000000 -0.000000 19.729300 15.458900 43.861500 10.847900 -7.125000 0.000000 -0.000000 -36.237400 72.034103 -24.195499 0.000000 0.000000 0.000000 89.310501 0.594200 -8.887800 -4.667100 8.021800 -0.327400 0.000000 0.000000 30.491100 -30.063801 31.348801 -16.759001 7.125000 -0.000000 -0.000000 0.846900 5.157400 0.919700 
0.000000 15.999995 0.000000 532.046021 97.627296 538.177979 0.000000 0.000000 0.000000 -23.638300 1.165800 -9.294500 2.434000 9.716800 28.064501 1.868600 8.781100 -30.235300 0.003500 -0.381200 -1.047300 0.000000 0.000000 0.000000 9.087400 9.441500 -8.523000 -2.101900 -9.075300 26.031099 -0.416100 -6.853400 -16.593800 -1.053900 6.527700 -18.323400 -3.143200 -2.087200 -5.334800 1.356400 -2.617800 -1.202500 2.975600 -1.317700 1.954800 -3.736300 -3.696200 -1.262700 -1.409600 -4.806900 1.761500 0.128300 -2.432700 0.799200 -0.000000 0.000000 0.000000 -93.598900 -3.805200 6.864000 5.341100 -9.158800 -0.428100 -0.000000 -0.000000 20.732901 14.674100 44.529900 10.405800 -7.125000 0.000000 -0.000000 -38.565399 72.246498 -26.046400 -0.000000 0.000000 0.000000 88.688599 0.637500 -7.949500 -4.489000 7.720200 -0.303000 0.000000 0.000000 30.302799 -30.605101 31.318600 -17.091000 7.125000 -0.000000 -0.000000 0.537700 5.276600 0.584900 
